<svg width="32" height="32" viewBox="0 0 32 32" fill="none" xmlns="http://www.w3.org/2000/svg">
  <!-- Background circle -->
  <circle cx="16" cy="16" r="16" fill="#f97316"/>
  
  <!-- Gear teeth -->
  <path d="M16 6C16 6 17.5 7.5 17.5 9C17.5 10.5 16 12 16 12C16 12 14.5 10.5 14.5 9C14.5 7.5 16 6 16 6Z" fill="white"/>
  <path d="M16 20C16 20 17.5 21.5 17.5 23C17.5 24.5 16 26 16 26C16 26 14.5 24.5 14.5 23C14.5 21.5 16 20 16 20Z" fill="white"/>
  <path d="M6 16C6 16 7.5 17.5 9 17.5C10.5 17.5 12 16 12 16C12 16 10.5 14.5 9 14.5C7.5 14.5 6 16 6 16Z" fill="white"/>
  <path d="M20 16C20 16 21.5 17.5 23 17.5C24.5 17.5 26 16 26 16C26 16 24.5 14.5 23 14.5C21.5 14.5 20 16 20 16Z" fill="white"/>
  
  <!-- Center circle -->
  <circle cx="16" cy="16" r="5" fill="white"/>
  <circle cx="16" cy="16" r="3" fill="#f97316"/>
  
  <!-- Wrench overlay -->
  <path d="M12 14L18 20M18 14L12 20" stroke="white" stroke-width="2" stroke-linecap="round"/>
</svg>
